<?xml version="1.0" encoding="utf-8"?>
<!-- Generator: Adobe Illustrator 23.0.1, SVG Export Plug-In . SVG Version: 6.00 Build 0)  -->
<svg version="1.1" id="Layer_1" xmlns="http://www.w3.org/2000/svg" xmlns:xlink="http://www.w3.org/1999/xlink" x="0px" y="0px"
	 viewBox="0 0 1024 1024" style="enable-background:new 0 0 1024 1024;" xml:space="preserve">
<style type="text/css">
	.st0{fill:#C4A2FC;}
</style>
<path class="st0" d="M927.2,594.9c-32.2-19.2-64.4-19.2-96.6-12.8c-25.7,6.4-45.1,19.2-57.9,31.9l-90.2-51.1
	c6.4-12.8,6.4-31.9,6.4-51.1c0-19.2-6.4-31.9-6.4-51.1l90.2-51.1c25.7,25.6,57.9,38.3,90.1,38.3c19.3,0,45.1-6.4,64.4-19.2
	c64.4-38.3,83.7-114.9,45.1-172.4c-19.3-31.9-45.1-51.1-77.2-57.5c-32.2-6.4-70.8-6.4-96.6,12.8c-32.2,19.1-51.5,44.7-57.9,76.6
	c-6.4,19.1-6.4,44.7,0,63.8l-90.2,51.1c-25.7-19.1-57.9-38.3-90.1-44.7V250.1c56.8-12.6,97-63.1,96.6-121.3
	c-0.5-70.7-58-127.7-128.7-127.7c-70.7-0.1-128.2,57-128.8,127.7c0,57.5,38.7,108.5,96.6,121.3v102.1
	c-32.2,12.8-64.4,31.9-90.1,51.1l-90.2-51.1c6.4-19.1,6.4-44.7,0-63.8c-6.4-31.9-25.7-63.9-57.9-76.6
	c-32.2-19.2-64.4-25.6-96.6-12.8c-32.2,6.4-64.4,25.6-77.2,57.5C71,288.4,58.1,320.4,71,352.3c6.4,31.9,25.7,63.9,57.9,76.6
	c19.3,12.8,45.1,19.2,64.4,19.2c32.2,0,64.4-12.8,90.1-38.3l90.2,51.1c0,19.2-6.4,31.9-6.4,51.1c0,19.2,6.4,31.9,6.4,51.1L283.4,614
	c-12.8-19.2-38.6-25.5-57.9-31.9c-32.2-12.8-64.4-6.4-96.6,12.8c-32.2,12.8-51.5,44.7-57.9,76.6c-12.9,31.9-6.4,63.8,12.8,95.7
	c19.4,31.9,45.1,51.1,77.3,57.5c12.9,6.4,19.3,6.4,32.2,6.4c19.3,0,45.1-6.4,64.4-19.2c32.2-19.1,51.5-44.7,57.9-76.6
	c6.4-19.1,6.4-44.7,0-63.8l90.2-51.1c25.7,19.1,57.9,38.3,90.1,44.7v102.1c-57.9,19.2-96.6,70.2-96.6,127.7
	c0.5,70.7,58,127.8,128.8,127.7c70.7,0.1,128.2-57,128.8-127.7c0-57.5-38.7-108.5-96.6-121.3V671.5c32.2-6.4,64.4-25.6,90.1-51.1
	l90.2,51.1c-6.4,19.2-6.4,44.7,0,63.8c6.4,32,32.2,57.5,57.9,76.6c19.3,12.8,45.1,19.2,64.4,19.2c12.9,0,19.3,0,32.2-6.4
	c32.2-6.4,57.9-31.9,77.2-57.5C1010.9,703.4,991.6,626.8,927.2,594.9L927.2,594.9z M798.5,301.2c6.4-19.1,12.9-31.9,32.2-38.3
	c12.9-6.4,19.3-6.4,32.2-6.4h19.3c19.3,6.4,32.2,12.8,38.6,31.9c19.3,31.9,6.5,70.2-25.7,89.3c-32.2,19.2-70.8,6.4-90.1-25.5
	C798.5,339.5,798.5,320.4,798.5,301.2L798.5,301.2z M251.3,352.3c-19.3,31.9-58,38.3-90.2,25.6c-12.9-12.8-25.7-25.6-32.2-38.4
	c0-19.1,0-38.3,6.4-51c12.9-12.8,25.8-25.6,38.7-31.9c19.3,0,38.7,0,51.5,6.4s25.7,19.2,32.2,38.3
	C257.7,320.4,257.7,339.5,251.3,352.3z M257.7,722.6c-6.4,19.2-12.9,31.9-32.2,38.3c-12.9,6.4-32.2,6.4-51.5,6.4
	c-19.3-6.4-32.2-12.8-38.6-31.9c-6.5-12.8-12.9-31.9-6.5-51.1c6.4-19.1,12.9-31.9,32.2-38.3c12.9-6.4,19.3-6.4,32.2-6.4h19.3
	c19.3,6.4,32.2,12.8,38.6,31.9C257.7,684.3,257.7,703.4,257.7,722.6z M463.7,128.8c0-38.3,25.7-63.8,64.4-63.8s64.4,25.5,64.4,63.8
	c0,38.3-25.7,63.9-64.4,63.9S463.7,167.1,463.7,128.8L463.7,128.8z M592.5,894.9c0,38.3-25.7,63.9-64.4,63.9s-64.4-25.6-64.4-63.9
	s25.7-63.8,64.4-63.8S592.5,856.6,592.5,894.9L592.5,894.9z M528.1,607.6c-51.5,0-96.6-44.7-96.6-95.7s45.1-95.7,96.6-95.7
	s96.6,44.7,96.6,95.7S579.6,607.6,528.1,607.6z M920.8,735.3c-6.4,12.8-19.3,25.6-38.6,32c-19.3,6.3-32.2,0-51.5-6.4
	c-12.9-6.4-25.7-19.2-32.2-38.4c-6.4-19.1,0-31.9,6.4-51c12.9-19.2,32.3-31.9,58-31.9c12.9,0,19.3,0,32.2,6.4
	C927.2,665.2,933.7,703.4,920.8,735.3L920.8,735.3z"/>
</svg>
