<svg width="867" height="312" viewBox="0 0 867 312" fill="none" xmlns="http://www.w3.org/2000/svg">
<path d="M850.818 66.1615C854.568 115.449 799.248 153.618 791.388 143.307C787.745 138.528 791.008 135.326 795.096 131.312C799.829 126.667 805.668 120.936 803.183 110.417C800.962 101.017 791.43 98.3092 780.664 95.2502C768.973 91.9286 755.826 88.1934 749.005 75.0285C735.901 49.7396 749.292 19.1506 780.245 11.9183C811.197 4.68605 847.067 16.8741 850.818 66.1615Z" fill="url(#paint0_linear_329_15)"/>
<path fill-rule="evenodd" clip-rule="evenodd" d="M16 295V76.1998L8 35.7998L16 11.7998H144C163.467 11.7998 180.933 14.8665 196.4 20.9998C212.133 26.8665 224.533 36.9998 233.6 51.3998C242.933 65.5331 247.6 85.1331 247.6 110.2C247.6 135.266 242.667 155.133 232.8 169.8C222.933 184.2 209.2 194.466 191.6 200.6C174.267 206.733 154.4 209.8 132 209.8H88V230.6L92 270.6L88 295H16ZM88 147H127.2C141.067 147 152.133 144.466 160.4 139.4C168.667 134.066 172.8 124.333 172.8 110.2C172.8 100.333 170.8 92.9998 166.8 88.1998C162.8 83.1331 157.2 79.7998 150 78.1998C143.067 76.5998 134.933 75.7998 125.6 75.7998H84L88 147Z" fill="url(#paint1_linear_329_15)"/>
<path fill-rule="evenodd" clip-rule="evenodd" d="M491.875 295V76.1998L483.875 35.7998L491.875 11.7998H619.875C639.342 11.7998 656.808 14.8665 672.275 20.9998C688.008 26.8665 700.408 36.9998 709.475 51.3998C718.808 65.5331 723.475 85.1331 723.475 110.2C723.475 135.266 718.542 155.133 708.675 169.8C698.808 184.2 685.075 194.466 667.475 200.6C650.142 206.733 630.275 209.8 607.875 209.8H563.875V230.6L567.875 270.6L563.875 295H491.875ZM563.875 147H603.075C616.942 147 628.008 144.466 636.275 139.4C644.542 134.066 648.675 124.333 648.675 110.2C648.675 100.333 646.675 92.9998 642.675 88.1998C638.675 83.1331 633.075 79.7998 625.875 78.1998C618.942 76.5998 610.808 75.7998 601.475 75.7998H559.875L563.875 147Z" fill="url(#paint2_linear_329_15)"/>
<path fill-rule="evenodd" clip-rule="evenodd" d="M480 187C480 249.408 429.408 300 367 300C304.592 300 254 249.408 254 187C254 124.592 304.592 74 367 74C429.408 74 480 124.592 480 187ZM418 187C418 215.167 395.167 238 367 238C338.833 238 316 215.167 316 187C316 158.833 338.833 136 367 136C395.167 136 418 158.833 418 187Z" fill="url(#paint3_linear_329_15)"/>
<defs>
<linearGradient id="paint0_linear_329_15" x1="429.5" y1="10" x2="429.5" y2="300" gradientUnits="userSpaceOnUse">
<stop stop-color="#d48c43"/>
<stop offset="1" stop-color="#E7DCB3"/>
</linearGradient>
<linearGradient id="paint1_linear_329_15" x1="429.5" y1="10" x2="429.5" y2="300" gradientUnits="userSpaceOnUse">
<stop stop-color="#d48c43"/>
<stop offset="1" stop-color="#E7DCB3"/>
</linearGradient>
<linearGradient id="paint2_linear_329_15" x1="429.5" y1="10" x2="429.5" y2="300" gradientUnits="userSpaceOnUse">
<stop stop-color="#d48c43"/>
<stop offset="1" stop-color="#E7DCB3"/>
</linearGradient>
<linearGradient id="paint3_linear_329_15" x1="429.5" y1="10" x2="429.5" y2="300" gradientUnits="userSpaceOnUse">
<stop stop-color="#d48c43"/>
<stop offset="1" stop-color="#E7DCB3"/>
</linearGradient>
</defs>
</svg>
